<svg width="58" height="58" viewBox="0 0 58 58" fill="none" xmlns="http://www.w3.org/2000/svg">
<path d="M33.486 18.5442C32.9083 19.1106 32.9083 20.0508 33.4747 20.6285L40.3509 27.5274H14.1489C13.3446 27.5274 12.6876 28.1844 12.6876 29C12.6876 29.8156 13.3446 30.4727 14.1489 30.4727H40.3509L33.4634 37.3715C32.897 37.9492 32.9083 38.8781 33.4747 39.4559C34.0524 40.0223 34.97 40.0223 35.5478 39.4446L44.8821 30.0422C45.0067 29.9063 45.1087 29.759 45.188 29.5778C45.2673 29.3965 45.3013 29.2039 45.3013 29.0113C45.3013 28.6262 45.154 28.2637 44.8821 27.9805L35.5478 18.5781C34.9927 17.9891 34.0638 17.9778 33.486 18.5442Z" fill="white"/>
</svg>
