<svg width="58" height="58" viewBox="0 0 58 58" fill="none" xmlns="http://www.w3.org/2000/svg">
<path d="M24.514 18.5442C25.0917 19.1106 25.0917 20.0508 24.5253 20.6285L17.6491 27.5274H43.8511C44.6554 27.5274 45.3124 28.1844 45.3124 29C45.3124 29.8156 44.6554 30.4727 43.8511 30.4727H17.6491L24.5366 37.3715C25.103 37.9492 25.0917 38.8781 24.5253 39.4559C23.9476 40.0223 23.03 40.0223 22.4522 39.4446L13.1179 30.0422C12.9933 29.9063 12.8913 29.759 12.812 29.5778C12.7327 29.3965 12.6987 29.2039 12.6987 29.0113C12.6987 28.6262 12.846 28.2637 13.1179 27.9805L22.4522 18.5781C23.0073 17.9891 23.9362 17.9778 24.514 18.5442Z" fill="white"/>
</svg>
