<svg width="46" height="22" viewBox="0 0 46 22" fill="none" xmlns="http://www.w3.org/2000/svg">
<path d="M6.5 14.1131C8.36328 14.1131 9.875 12.6365 9.875 10.7381V5.1131C9.875 3.24982 8.36328 1.7381 6.5 1.7381C4.60156 1.7381 3.125 3.24982 3.125 5.1131V10.7381C3.125 12.6365 4.60156 14.1131 6.5 14.1131ZM12.125 8.4881H11.5625C11.2461 8.4881 11 8.76935 11 9.0506V10.7381C11 13.3748 8.71484 15.4842 6.04297 15.2381C3.6875 14.992 2 12.9178 2 10.5623V9.0506C2 8.76935 1.71875 8.4881 1.4375 8.4881H0.875C0.558594 8.4881 0.3125 8.76935 0.3125 9.0506V10.492C0.3125 13.6209 2.52734 16.4334 5.65625 16.8553V18.0506H3.6875C3.37109 18.0506 3.125 18.3318 3.125 18.6131V19.1756C3.125 19.492 3.37109 19.7381 3.6875 19.7381H9.3125C9.59375 19.7381 9.875 19.492 9.875 19.1756V18.6131C9.875 18.3318 9.59375 18.0506 9.3125 18.0506H7.34375V16.8904C10.332 16.4686 12.6875 13.867 12.6875 10.7381V9.0506C12.6875 8.76935 12.4062 8.4881 12.125 8.4881Z" fill="#9196A7"/>
<path d="M37.1875 3.9881H27.0273C26.1133 3.9881 25.375 4.76154 25.375 5.6756V15.8358C25.375 16.7498 26.1133 17.4881 27.0273 17.4881H37.1875C38.1016 17.4881 38.875 16.7498 38.875 15.8358V5.6756C38.875 4.76154 38.1016 3.9881 37.1875 3.9881ZM43.832 5.32404L40 7.99591V13.5154L43.832 16.1873C44.5703 16.6795 45.625 16.1522 45.625 15.2733V6.2381C45.625 5.35919 44.5703 4.83185 43.832 5.32404Z" fill="#9196A7"/>
</svg>
